<?xml version="1.0" encoding="UTF-8"?>
<!-- Generator: visioncortex VTracer 0.6.3 -->
<svg version="1.1" xmlns="http://www.w3.org/2000/svg" width="1280" height="1001">
<path d="M0 0 C422.4 0 844.8 0 1280 0 C1280 330.33 1280 660.66 1280 1001 C857.6 1001 435.2 1001 0 1001 C0 670.67 0 340.34 0 0 Z " fill="#FCFCFC" transform="translate(0,0)"/>
<path d="M0 0 C4.67 2.77 9.36 5.51 14.06 8.25 C15.57 9.14 15.57 9.14 17.12 10.05 C25.18 14.74 33.3 19.33 41.43 23.91 C47.12 27.11 52.74 30.4 58.32 33.79 C64.77 37.69 71.32 41.4 77.87 45.13 C87.78 50.77 97.65 56.46 107.49 62.22 C114.79 66.49 122.1 70.72 129.43 74.94 C138.77 80.32 148.09 85.73 157.39 91.17 C164.72 95.45 172.07 99.7 179.43 103.94 C187.78 108.75 196.11 113.58 204.43 118.44 C217.07 125.83 229.75 133.14 242.43 140.44 C256.1 148.31 269.76 156.19 283.36 164.16 C288.67 167.26 293.98 170.33 299.32 173.37 C300.49 174.04 301.66 174.7 302.82 175.37 C305.03 176.62 307.23 177.87 309.44 179.12 C323.62 187.22 334.62 195.65 343.43 209.44 C343.91 210.16 344.4 210.88 344.9 211.63 C349.29 219.42 349.08 231.01 346.9 239.5 C340.87 256.87 324.42 266.78 309.24 275.29 C305.25 277.53 301.31 279.86 297.37 282.19 C290.92 286 284.44 289.74 277.93 293.44 C271.68 297 265.44 300.59 259.24 304.25 C252.15 308.45 245.01 312.58 237.87 316.69 C229.37 321.58 220.89 326.5 212.43 331.44 C201.83 337.64 191.2 343.78 180.56 349.91 C175.24 352.98 169.93 356.05 164.62 359.13 C158.03 362.95 151.42 366.73 144.81 370.5 C137.17 374.86 129.58 379.27 122.02 383.74 C109.13 391.35 96.2 398.88 83.2 406.28 C78.17 409.15 73.18 412.08 68.18 415 C50.66 425.24 33.1 435.39 15.45 445.41 C9.73 448.67 4.07 452.04 -1.57 455.44 C-42.56 480.07 -42.56 480.07 -64.57 476.44 C-69.77 474.97 -74.1 472.46 -78.57 469.44 C-79.28 469.01 -80 468.58 -80.73 468.13 C-90.14 461.5 -93.41 448.17 -95.28 437.47 C-96.19 431.08 -95.98 424.58 -95.95 418.14 C-95.95 416.43 -95.96 414.72 -95.96 413.02 C-95.98 408.36 -95.97 403.7 -95.96 399.04 C-95.96 394 -95.97 388.96 -95.97 383.92 C-95.99 374.06 -95.98 364.2 -95.98 354.34 C-95.97 346.33 -95.97 338.31 -95.97 330.29 C-95.97 329.15 -95.97 328.01 -95.97 326.83 C-95.97 324.51 -95.97 322.19 -95.98 319.87 C-95.98 298.12 -95.97 276.37 -95.96 254.61 C-95.94 235.97 -95.95 217.33 -95.96 198.68 C-95.98 177.01 -95.98 155.34 -95.97 133.66 C-95.97 131.35 -95.97 129.04 -95.97 126.72 C-95.97 125.59 -95.97 124.45 -95.97 123.27 C-95.97 115.27 -95.97 107.27 -95.98 99.27 C-95.99 89.51 -95.98 79.76 -95.97 70 C-95.96 65.02 -95.96 60.05 -95.97 55.08 C-95.98 50.51 -95.97 45.95 -95.96 41.39 C-95.95 39.75 -95.95 38.11 -95.96 36.47 C-96.03 19.48 -94.35 1.63 -82.32 -11.56 C-56.29 -34.82 -24.5 -14.59 0 0 Z " fill="#EB1B24" transform="translate(195.56982421875,272.5576171875)"/>
<path d="M0 0 C7.92 0.84 15.79 1.93 23.67 3.1 C25.19 3.33 26.72 3.55 28.24 3.77 C30.46 4.09 32.68 4.41 34.9 4.75 C35.93 4.89 35.93 4.89 36.97 5.04 C41.77 5.77 41.77 5.77 44 8 C44.2 10.62 44.27 13.12 44.26 15.74 C44.26 16.55 44.27 17.36 44.27 18.19 C44.28 20.92 44.28 23.65 44.27 26.37 C44.28 28.32 44.28 30.27 44.29 32.22 C44.3 36.43 44.3 40.65 44.3 44.86 C44.31 51.54 44.32 58.22 44.35 64.9 C44.39 81.52 44.43 98.14 44.45 114.76 C44.46 127.64 44.49 140.51 44.53 153.38 C44.55 158.93 44.56 164.47 44.56 170.01 C44.5 202.62 44.5 202.62 48 235 C48.34 237.33 48.67 239.67 49 242 C43.79 242.1 38.57 242.17 33.36 242.22 C31.58 242.24 29.81 242.27 28.03 242.3 C25.49 242.35 22.94 242.37 20.39 242.39 C19.59 242.41 18.8 242.43 17.98 242.45 C12.47 242.46 12.47 242.46 10.05 240.12 C9.7 239.42 9.36 238.72 9 238 C8.41 236.89 8.41 236.89 7.81 235.75 C7.54 235.17 7.28 234.6 7 234 C6.29 234.47 5.57 234.94 4.84 235.43 C-11.1 245.79 -27.7 248.8 -46.5 244.92 C-62.57 241.03 -76.8 230.68 -86 217 C-100.16 192.81 -103.24 161.36 -96.77 134.28 C-96.21 132.17 -95.62 130.09 -95 128 C-94.64 126.75 -94.28 125.51 -93.9 124.23 C-87.46 104.44 -75.67 88.56 -57 79 C-42.83 71.97 -25.77 70.79 -10.6 75.07 C-7.09 76.33 -4.16 78.01 -1 80 C-0.34 80 0.32 80 1 80 C0.89 78.76 0.89 78.76 0.78 77.49 C0.06 68.38 -0.13 59.33 -0.1 50.2 C-0.1 48.74 -0.09 47.28 -0.09 45.82 C-0.09 42.03 -0.08 38.23 -0.07 34.44 C-0.06 30.55 -0.05 26.67 -0.05 22.78 C-0.04 15.18 -0.02 7.59 0 0 Z " fill="#000002" transform="translate(1133,372)"/>
<path d="M0 0 C6.39 -0.03 12.78 -0.04 19.17 -0.05 C21.35 -0.06 23.52 -0.07 25.7 -0.08 C28.82 -0.09 31.94 -0.09 35.06 -0.1 C36.53 -0.11 36.53 -0.11 38.03 -0.11 C39.38 -0.11 39.38 -0.11 40.76 -0.11 C41.95 -0.12 41.95 -0.12 43.17 -0.12 C45 0 45 0 46 1 C46.1 2.98 46.14 4.97 46.14 6.95 C46.15 8.24 46.16 9.54 46.17 10.87 C46.17 12.32 46.17 13.76 46.17 15.21 C46.18 16.73 46.19 18.24 46.19 19.75 C46.21 23.03 46.22 26.3 46.23 29.57 C46.25 34.75 46.27 39.93 46.29 45.12 C46.37 59.86 46.43 74.6 46.48 89.35 C46.51 97.48 46.54 105.62 46.58 113.75 C46.61 118.89 46.63 124.03 46.64 129.17 C46.65 132.4 46.67 135.62 46.69 138.84 C46.69 140.32 46.7 141.79 46.7 143.27 C46.15 162.98 46.15 162.98 53.33 180.64 C62.53 189.5 73.33 190.78 85.55 190.66 C94.56 190.3 101.52 188.75 107.94 181.95 C115.3 171.99 115.45 160.63 115.43 148.72 C115.44 147.09 115.45 145.46 115.46 143.84 C115.49 139.45 115.5 135.06 115.51 130.67 C115.52 126.07 115.54 121.47 115.57 116.87 C115.61 108.18 115.64 99.49 115.66 90.79 C115.69 80.89 115.73 70.99 115.78 61.08 C115.87 40.72 115.94 20.36 116 0 C122.39 -0.03 128.78 -0.04 135.17 -0.05 C137.35 -0.06 139.52 -0.07 141.7 -0.08 C144.82 -0.09 147.94 -0.09 151.06 -0.1 C152.53 -0.11 152.53 -0.11 154.03 -0.11 C154.93 -0.11 155.83 -0.11 156.76 -0.11 C157.95 -0.12 157.95 -0.12 159.17 -0.12 C161 0 161 0 162 1 C162.1 3.23 162.13 5.46 162.13 7.68 C162.14 8.39 162.14 9.1 162.14 9.83 C162.15 12.21 162.15 14.6 162.15 16.99 C162.15 18.69 162.15 20.4 162.16 22.1 C162.16 26.75 162.17 31.4 162.17 36.04 C162.17 39.92 162.17 43.81 162.18 47.69 C162.18 56.85 162.19 66.02 162.19 75.18 C162.18 84.62 162.2 94.06 162.21 103.5 C162.22 111.61 162.23 119.72 162.23 127.83 C162.23 132.67 162.23 137.51 162.24 142.35 C162.25 146.92 162.25 151.48 162.24 156.04 C162.24 157.71 162.25 159.38 162.25 161.04 C162.31 179.24 160.44 195.32 147.21 208.98 C125.3 228.99 98.31 231.99 69.81 231.18 C47.81 230.14 28.02 222.15 12.74 206.01 C-5.16 185.34 -1.3 154.24 -1.24 128.63 C-1.23 124.17 -1.23 119.72 -1.23 115.26 C-1.23 107.81 -1.22 100.35 -1.21 92.89 C-1.19 84.27 -1.18 75.64 -1.19 67.02 C-1.19 57.81 -1.18 48.6 -1.17 39.39 C-1.17 36.74 -1.17 34.1 -1.17 31.45 C-1.17 27.3 -1.16 23.16 -1.15 19.01 C-1.15 17.49 -1.15 15.96 -1.15 14.44 C-1.15 12.37 -1.14 10.3 -1.13 8.22 C-1.13 7.06 -1.13 5.9 -1.13 4.71 C-1 2 -1 2 0 0 Z " fill="#FDFDFD" transform="translate(180,387)"/>
<path d="M0 0 C1.92 0.42 1.92 0.42 3.88 0.84 C15.68 3.7 34.73 8.84 41.73 19.68 C42.15 20.45 42.57 21.21 43 22 C42.6 22.56 42.2 23.12 41.79 23.7 C37.37 29.92 33.21 36.27 29.11 42.7 C27.11 45.83 25.07 48.92 23 52 C19.35 50.97 16.24 49.62 13 47.69 C6.99 44.26 0.56 42.15 -6 40 C-6.91 39.69 -7.81 39.38 -8.75 39.05 C-20.9 35.24 -34.99 34.38 -47 39 C-52.82 42.25 -57.36 46.56 -60.25 52.62 C-61.58 58.6 -61.73 64.4 -60.06 70.31 C-50.89 82.26 -32.23 85.33 -18.44 88.82 C6.23 95.09 26.13 103.59 39.75 126 C44.47 133.93 46.49 141.88 47.31 151 C47.4 151.91 47.48 152.82 47.56 153.76 C48.5 165.95 47.63 177.95 42 189 C41.26 190.55 41.26 190.55 40.5 192.14 C31.55 209.96 17.67 219.93 0 228 C-1.14 228.53 -2.28 229.05 -3.46 229.6 C-7.43 231.17 -11.33 232.22 -15.5 233.12 C-16.28 233.3 -17.07 233.47 -17.87 233.65 C-25.25 235.18 -32.47 235.8 -40 236 C-40.87 236.04 -41.74 236.08 -42.64 236.12 C-58.33 236.54 -73.91 234.11 -89 230 C-90.43 229.63 -90.43 229.63 -91.89 229.25 C-102.11 226.42 -115.42 221.58 -123 214 C-122.55 213.08 -122.1 212.15 -121.64 211.2 C-119.97 207.78 -118.31 204.35 -116.65 200.92 C-115.93 199.44 -115.21 197.95 -114.48 196.47 C-113.45 194.34 -112.41 192.21 -111.38 190.07 C-111.06 189.41 -110.73 188.75 -110.4 188.07 C-109.11 185.4 -107.94 182.81 -107 180 C-103.05 180.31 -100.08 181.37 -96.62 183.19 C-90.3 186.46 -83.76 188.99 -77.03 191.3 C-75.18 191.94 -73.34 192.6 -71.5 193.27 C-62.16 196.17 -52.85 196.42 -43.12 196.5 C-42.45 196.51 -41.78 196.52 -41.09 196.53 C-29.45 196.67 -20.34 195.07 -11.69 186.93 C-6.45 180.95 -4.61 174.03 -4.8 166.16 C-5.64 157.06 -10.26 150.98 -17 145 C-24.16 140.06 -32.69 138.19 -41 136 C-68.19 128.8 -68.19 128.8 -79 123 C-80.42 122.31 -80.42 122.31 -81.86 121.61 C-96.12 114.43 -104.63 104.03 -109.96 89.18 C-115.58 71.92 -114.27 52.86 -106.25 36.56 C-103.19 30.64 -99.78 25.68 -95 21 C-94.41 20.34 -93.82 19.68 -93.21 19 C-70.62 -5.54 -30.22 -6.78 0 0 Z " fill="#000002" transform="translate(687,383)"/>
<path d="M0 0 C12.89 13.37 13.49 31.26 13.33 48.66 C13.31 51.5 13.3 54.33 13.29 57.17 C13.26 63.19 13.22 69.22 13.18 75.24 C13.14 82.23 13.1 89.23 13.07 96.22 C13.06 99.01 13.03 101.79 13.01 104.57 C13 106.29 12.99 108.01 12.99 109.73 C12.97 110.88 12.97 110.88 12.96 112.04 C12.96 119.05 13.38 126.58 18.5 131.8 C19.11 132.45 19.73 133.09 20.36 133.75 C20.96 134.35 21.56 134.94 22.18 135.55 C22.7 136.08 23.22 136.61 23.75 137.16 C24.88 138.31 26.03 139.43 27.18 140.55 C25.88 143.38 24.44 145.61 22.39 147.94 C21.57 148.88 21.57 148.88 20.74 149.83 C20.16 150.48 19.59 151.13 19 151.8 C18.41 152.47 17.83 153.13 17.23 153.82 C16.07 155.14 14.92 156.45 13.76 157.76 C11.79 160 9.83 162.24 7.87 164.49 C6.98 165.51 6.08 166.53 5.18 167.55 C0.45 166.2 -3.37 164.17 -7.38 161.36 C-7.95 160.97 -8.52 160.57 -9.11 160.16 C-13.41 157.08 -16.2 154.11 -18.82 149.55 C-20.05 150.47 -21.28 151.38 -22.5 152.3 C-23.19 152.81 -23.87 153.32 -24.58 153.85 C-26.15 155.04 -27.67 156.29 -29.15 157.59 C-32.24 159.86 -35.13 160.99 -38.75 162.24 C-39.94 162.65 -41.12 163.07 -42.34 163.5 C-58.15 168.28 -78.28 166.86 -93.13 159.8 C-106.92 152.27 -112.96 146.11 -117.8 131.27 C-121.91 116.24 -120.5 99.64 -113.82 85.55 C-106.18 72.47 -93.78 64.69 -79.48 60.24 C-63 55.99 -46.75 55.39 -29.82 55.55 C-29.91 40.84 -29.91 40.84 -36.82 28.55 C-36.82 27.89 -36.82 27.23 -36.82 26.55 C-53.2 21.71 -71.47 29 -85.74 36.65 C-88.32 38.06 -90.69 39.45 -92.94 41.36 C-94.82 42.55 -94.82 42.55 -97.32 42.64 C-100.91 41.07 -102.06 38.39 -103.75 35.05 C-104.44 33.77 -105.13 32.49 -105.82 31.21 C-106.16 30.59 -106.49 29.96 -106.84 29.32 C-108.56 26.22 -110.57 23.32 -112.59 20.42 C-114.63 17.31 -115.82 15.33 -115.82 11.55 C-102.47 0.89 -83.06 -5.12 -66.67 -9.01 C-65.12 -9.38 -63.57 -9.78 -62.03 -10.19 C-42.7 -14.67 -15.99 -12.76 0 0 Z " fill="#000002" transform="translate(987.81640625,454.44921875)"/>
<path d="M0 0 C1.16 4.44 0.96 8.63 0.66 13.15 C0.61 13.93 0.57 14.71 0.52 15.51 C0.37 17.99 0.22 20.46 0.06 22.94 C-0.09 25.41 -0.24 27.88 -0.39 30.36 C-0.48 31.89 -0.57 33.42 -0.67 34.96 C-0.92 38.98 -1.15 42.97 -1 47 C0.99 48.99 4.95 48.23 7.68 48.28 C8.45 48.3 9.23 48.32 10.02 48.34 C12.49 48.4 14.96 48.45 17.44 48.5 C20.69 48.57 23.93 48.64 27.18 48.72 C27.94 48.73 28.69 48.75 29.46 48.76 C34.77 48.89 34.77 48.89 37 50 C36.57 55.26 34.56 59.41 32.34 64.11 C30.68 67.69 29.23 71.33 27.8 75 C27 77 27 77 26 79 C17.09 79 8.18 79 -1 79 C-1.05 90.36 -1.08 101.72 -1.1 113.09 C-1.11 118.36 -1.13 123.64 -1.15 128.92 C-1.17 134.02 -1.18 139.12 -1.19 144.23 C-1.19 146.16 -1.2 148.1 -1.21 150.04 C-2.38 167.98 -2.38 167.98 2.71 184.2 C7.4 188.43 10.89 189.16 17.19 189.19 C18.48 189.2 19.77 189.22 21.11 189.23 C25.13 188.99 28.2 188.25 32 187 C34.64 190.95 35.23 194.77 36.19 199.38 C36.38 200.23 36.57 201.08 36.76 201.95 C38.5 210.19 38.5 210.19 37 214 C23.6 221.74 4.1 223.09 -10.7 219.63 C-21.98 216.55 -34.11 212.3 -40.39 201.64 C-44.37 192.32 -45.3 182.33 -45.32 172.3 C-45.33 171.29 -45.34 170.28 -45.35 169.25 C-45.38 165.96 -45.4 162.68 -45.41 159.39 C-45.43 157.1 -45.45 154.81 -45.47 152.51 C-45.52 146.51 -45.56 140.5 -45.6 134.5 C-45.64 128.36 -45.69 122.22 -45.74 116.08 C-45.84 104.05 -45.92 92.03 -46 80 C-50.03 78.91 -53.6 79.01 -57.76 79.16 C-60 79 -60 79 -62 77 C-62.24 74.4 -62.24 74.4 -62.23 71.15 C-62.23 69.99 -62.23 68.83 -62.22 67.63 C-62.21 66.41 -62.2 65.19 -62.19 63.94 C-62.19 62.71 -62.19 61.49 -62.19 60.23 C-62.14 51.14 -62.14 51.14 -61 50 C-58.3 49.93 -55.63 49.91 -52.94 49.94 C-51.8 49.94 -51.8 49.94 -50.64 49.95 C-48.76 49.96 -46.88 49.98 -45 50 C-45.01 48.75 -45.02 47.51 -45.04 46.22 C-45.09 37.61 -45.06 29.03 -44.56 20.44 C-44.52 19.73 -44.48 19.02 -44.44 18.3 C-44.25 15.32 -43.95 12.84 -43 10 C-40.24 9.01 -37.6 8.23 -34.77 7.52 C-33.94 7.3 -33.11 7.08 -32.25 6.86 C-30.49 6.4 -28.73 5.95 -26.96 5.5 C-24.27 4.82 -21.58 4.11 -18.9 3.41 C-17.19 2.96 -15.48 2.52 -13.77 2.08 C-12.96 1.87 -12.16 1.66 -11.33 1.45 C-7.47 0.48 -4.02 -0.27 0 0 Z " fill="#000002" transform="translate(813,397)"/>
<path d="M0 0 C2.85 2.37 4.88 4.46 6.95 7.57 C7.18 10.09 7.3 12.51 7.32 15.04 C7.34 15.79 7.35 16.55 7.37 17.33 C7.41 19.84 7.44 22.35 7.46 24.86 C7.47 25.72 7.48 26.58 7.49 27.47 C7.54 32.01 7.57 36.56 7.6 41.11 C7.63 45.8 7.71 50.48 7.8 55.17 C7.86 58.78 7.88 62.39 7.88 66.01 C7.9 67.73 7.92 69.46 7.97 71.19 C8.28 84.65 8.28 84.65 5 89.41 C-2.32 96.07 -9.05 96.98 -18.7 96.82 C-26.35 96.24 -31.82 92.12 -37.73 87.45 C-43.81 79.89 -44.2 69.03 -44.21 59.69 C-44.22 58.95 -44.22 58.22 -44.22 57.46 C-44.23 55.91 -44.23 54.35 -44.23 52.8 C-44.23 50.47 -44.25 48.14 -44.27 45.81 C-44.34 29.03 -43.2 12.3 -31.05 -0.43 C-22.5 -6.94 -8.64 -6.03 0 0 Z " fill="#FCFCFC" transform="translate(1127.046875,484.4296875)"/>
<path d="M0 0 C0 0.66 0 1.32 0 2 C0.66 2 1.32 2 2 2 C2.12 6.75 2.21 11.5 2.27 16.25 C2.3 17.87 2.33 19.48 2.38 21.1 C2.44 23.42 2.47 25.75 2.49 28.07 C2.51 28.79 2.54 29.51 2.57 30.25 C2.57 34.22 2.16 35.81 -0.42 38.9 C-1.27 39.59 -2.12 40.29 -3 41 C-3.6 41.5 -4.19 42 -4.81 42.51 C-11.46 47.31 -17.78 49.09 -26 48 C-29.25 46.31 -29.25 46.31 -32 44 C-32.54 43.61 -33.07 43.23 -33.62 42.83 C-37.54 39.92 -38.78 37.64 -40 33 C-40.79 24.86 -40.94 15.86 -35.56 9.22 C-28.8 2.81 -20.01 1.58 -11.06 0.81 C-10.21 0.73 -9.36 0.65 -8.49 0.56 C-2.53 0 -2.53 0 0 0 Z " fill="#FCFCFC" transform="translate(955,540)"/>
</svg>
